<svg xmlns="http://www.w3.org/2000/svg" xmlns:xlink="http://www.w3.org/1999/xlink" width="26" height="26" viewBox="0 0 26 26" fill="none"><rect  x="1" y="1" width="24" height="24" rx="2"    fill="#FFF4E9" ></rect><g filter="url(#filter_lq0REqOKMGegB3qGCUEaz)"><path d="M18.9946 14.1556C18.9874 14.1557 18.9802 14.1555 18.973 14.1551C18.9658 14.1548 18.9586 14.1543 18.9514 14.1536C18.9442 14.1529 18.9371 14.152 18.93 14.1509C18.9228 14.1499 18.9157 14.1487 18.9087 14.1473C18.9016 14.1459 18.8946 14.1443 18.8876 14.1425C18.8806 14.1408 18.8736 14.1389 18.8667 14.1368C18.8598 14.1347 18.853 14.1325 18.8462 14.13C18.8394 14.1276 18.8327 14.125 18.826 14.1223C18.8193 14.1195 18.8127 14.1166 18.8062 14.1135C18.7997 14.1105 18.7933 14.1072 18.7869 14.1038C18.7805 14.1004 18.7743 14.0969 18.7681 14.0932C18.7619 14.0895 18.7558 14.0856 18.7498 14.0816C18.7438 14.0776 18.7379 14.0734 18.7321 14.0691C18.7264 14.0648 18.7207 14.0604 18.7151 14.0559C18.7095 14.0513 18.7041 14.0466 18.6987 14.0417C18.6934 14.0369 18.6882 14.0319 18.6831 14.0268C18.678 14.0217 18.673 14.0165 18.6681 14.0112C18.6633 14.0058 18.6586 14.0004 18.654 13.9948C18.6494 13.9892 18.645 13.9835 18.6407 13.9777C18.6364 13.9719 18.6323 13.9661 18.6283 13.9601C18.6243 13.9541 18.6204 13.948 18.6167 13.9418C18.613 13.9356 18.6095 13.9293 18.6061 13.923C18.6027 13.9166 18.5994 13.9102 18.5964 13.9036C18.5933 13.8971 18.5904 13.8905 18.5876 13.8839C18.5849 13.8772 18.5823 13.8705 18.5798 13.8637C18.5774 13.8569 18.5752 13.8501 18.5731 13.8432C18.571 13.8363 18.5691 13.8293 18.5673 13.8223C18.5656 13.8153 18.564 13.8083 18.5626 13.8012C18.5612 13.7941 18.56 13.7871 18.5589 13.7799C18.5579 13.7728 18.557 13.7656 18.5563 13.7585C18.5556 13.7513 18.5551 13.7441 18.5547 13.7369C18.5544 13.7297 18.5542 13.7225 18.5542 13.7153L18.5542 10.1944C18.5542 10.1872 18.5544 10.18 18.5548 10.1728C18.5551 10.1657 18.5556 10.1585 18.5563 10.1513C18.557 10.1441 18.5579 10.137 18.559 10.1299C18.5601 10.1227 18.5613 10.1156 18.5627 10.1086C18.5641 10.1015 18.5657 10.0945 18.5674 10.0875C18.5692 10.0805 18.5711 10.0736 18.5732 10.0667C18.5753 10.0598 18.5775 10.053 18.58 10.0462C18.5824 10.0394 18.585 10.0327 18.5877 10.026C18.5905 10.0194 18.5934 10.0128 18.5965 10.0063C18.5996 9.99976 18.6028 9.99333 18.6062 9.98696C18.6096 9.98061 18.6131 9.97435 18.6168 9.96817C18.6206 9.96199 18.6244 9.95591 18.6284 9.94992C18.6324 9.94394 18.6366 9.93806 18.6408 9.93227C18.6451 9.92648 18.6496 9.9208 18.6541 9.91523C18.6587 9.90967 18.6634 9.90421 18.6682 9.89888C18.6731 9.89355 18.678 9.88834 18.6831 9.88324C18.6882 9.87815 18.6934 9.87318 18.6988 9.86834C18.7041 9.8635 18.7096 9.85879 18.7151 9.85422C18.7207 9.84967 18.7264 9.84524 18.7322 9.84094C18.738 9.83666 18.7438 9.83251 18.7498 9.8285C18.7558 9.8245 18.7619 9.82065 18.7681 9.81695C18.7743 9.81324 18.7805 9.80969 18.7869 9.80631C18.7932 9.80291 18.7997 9.79966 18.8062 9.79658C18.8127 9.7935 18.8193 9.79058 18.8259 9.78782C18.8326 9.78508 18.8393 9.78249 18.8461 9.78005C18.8528 9.77763 18.8597 9.77537 18.8666 9.77328C18.8735 9.77119 18.8804 9.76927 18.8874 9.76751C18.8944 9.76577 18.9014 9.76419 18.9085 9.76279C18.9155 9.76138 18.9226 9.76016 18.9298 9.75911C18.9369 9.75804 18.944 9.75715 18.9512 9.75644C18.9584 9.75575 18.9655 9.75522 18.9727 9.75487C18.9799 9.75451 18.9871 9.75433 18.9943 9.75433C19.0015 9.75433 19.0087 9.75451 19.0159 9.75487C19.0231 9.75522 19.0303 9.75575 19.0375 9.75644C19.0446 9.75715 19.0518 9.75804 19.0589 9.75911C19.066 9.76016 19.0731 9.76138 19.0802 9.76279C19.0873 9.76419 19.0943 9.76577 19.1013 9.76751C19.1083 9.76927 19.1152 9.77119 19.1221 9.77328C19.129 9.77537 19.1358 9.77763 19.1426 9.78005C19.1494 9.78249 19.1561 9.78508 19.1628 9.78782C19.1694 9.79058 19.176 9.7935 19.1825 9.79658C19.189 9.79966 19.1954 9.80291 19.2018 9.80631C19.2081 9.80969 19.2144 9.81324 19.2206 9.81695C19.2268 9.82065 19.2328 9.8245 19.2388 9.8285C19.2448 9.83251 19.2507 9.83666 19.2565 9.84094C19.2623 9.84524 19.268 9.84967 19.2735 9.85422C19.2791 9.85879 19.2845 9.8635 19.2899 9.86834C19.2952 9.87318 19.3004 9.87815 19.3055 9.88324C19.3106 9.88834 19.3156 9.89355 19.3204 9.89888C19.3253 9.90421 19.33 9.90967 19.3345 9.91523C19.3391 9.9208 19.3435 9.92648 19.3478 9.93227C19.3521 9.93806 19.3563 9.94394 19.3603 9.94992C19.3643 9.95591 19.3681 9.96199 19.3718 9.96817C19.3755 9.97435 19.3791 9.98061 19.3825 9.98696C19.3859 9.99333 19.3891 9.99976 19.3922 10.0063C19.3953 10.0128 19.3982 10.0194 19.4009 10.026C19.4037 10.0327 19.4063 10.0394 19.4087 10.0462C19.4111 10.053 19.4134 10.0598 19.4155 10.0667C19.4176 10.0736 19.4195 10.0805 19.4212 10.0875C19.423 10.0945 19.4246 10.1015 19.426 10.1086C19.4274 10.1156 19.4286 10.1227 19.4297 10.1299C19.4307 10.137 19.4316 10.1441 19.4323 10.1513C19.433 10.1585 19.4336 10.1657 19.4339 10.1728C19.4343 10.18 19.4344 10.1872 19.4344 10.1944L19.4344 13.7153C19.4344 13.959 19.2373 14.1556 18.9946 14.1556Z"   fill="#FFCC87" ></path></g><g filter="url(#filter_UZqn2I-LThIFwMh_izB6u)"><path d="M19.8033 14.3247L19.1187 15.0093C19.1166 15.0114 19.1145 15.0134 19.1124 15.0153C19.1103 15.0172 19.1081 15.0191 19.1059 15.0209C19.1036 15.0227 19.1014 15.0245 19.099 15.0262C19.0967 15.0279 19.0944 15.0296 19.092 15.0312C19.0896 15.0328 19.0872 15.0343 19.0847 15.0358C19.0822 15.0372 19.0797 15.0387 19.0772 15.04C19.0747 15.0414 19.0721 15.0427 19.0695 15.0439C19.0669 15.0451 19.0643 15.0463 19.0616 15.0474C19.0589 15.0485 19.0563 15.0495 19.0535 15.0505C19.0508 15.0515 19.0481 15.0524 19.0454 15.0532C19.0426 15.054 19.0398 15.0548 19.037 15.0555C19.0343 15.0562 19.0315 15.0568 19.0286 15.0574C19.0258 15.0579 19.023 15.0584 19.0201 15.0589C19.0173 15.0593 19.0144 15.0596 19.0116 15.0599C19.0087 15.0602 19.0058 15.0604 19.003 15.0605C19.0001 15.0607 18.9972 15.0607 18.9943 15.0607C18.9915 15.0607 18.9886 15.0607 18.9857 15.0605C18.9829 15.0604 18.98 15.0602 18.9771 15.0599C18.9743 15.0596 18.9714 15.0593 18.9686 15.0589C18.9657 15.0584 18.9629 15.0579 18.9601 15.0574C18.9572 15.0568 18.9544 15.0562 18.9517 15.0555C18.9489 15.0548 18.9461 15.054 18.9433 15.0532C18.9406 15.0524 18.9378 15.0515 18.9351 15.0505C18.9324 15.0495 18.9297 15.0485 18.9271 15.0474C18.9244 15.0463 18.9218 15.0451 18.9192 15.0439C18.9166 15.0427 18.914 15.0414 18.9115 15.04C18.9089 15.0387 18.9064 15.0372 18.904 15.0358C18.9015 15.0343 18.8991 15.0328 18.8967 15.0312C18.8943 15.0296 18.8919 15.0279 18.8896 15.0262C18.8873 15.0245 18.8851 15.0227 18.8828 15.0209C18.8806 15.0191 18.8784 15.0172 18.8763 15.0153C18.8742 15.0134 18.8721 15.0114 18.87 15.0093L18.1854 14.3247C18.1833 14.3227 18.1813 14.3206 18.1794 14.3184C18.1775 14.3163 18.1756 14.3141 18.1737 14.3119C18.1719 14.3097 18.1701 14.3074 18.1684 14.3051C18.1667 14.3027 18.165 14.3004 18.1634 14.298C18.1618 14.2956 18.1603 14.2932 18.1588 14.2907C18.1573 14.2882 18.1559 14.2857 18.1545 14.2832C18.1532 14.2806 18.1519 14.2781 18.1506 14.2755C18.1494 14.2728 18.1482 14.2702 18.1471 14.2675C18.146 14.2649 18.145 14.2622 18.144 14.2595C18.143 14.2567 18.1421 14.254 18.1413 14.2513C18.1405 14.2485 18.1397 14.2457 18.139 14.2429C18.1383 14.2401 18.1377 14.2373 18.1371 14.2345C18.1365 14.2316 18.136 14.2288 18.1356 14.226C18.1352 14.2231 18.1348 14.2202 18.1346 14.2174C18.1343 14.2145 18.1341 14.2116 18.1339 14.2088C18.1338 14.2059 18.1337 14.203 18.1337 14.2001C18.1337 14.1972 18.1338 14.1943 18.1339 14.1915C18.1341 14.1886 18.1343 14.1857 18.1346 14.1828C18.1348 14.1799 18.1352 14.1771 18.1356 14.1742C18.136 14.1714 18.1365 14.1685 18.1371 14.1657C18.1377 14.1629 18.1383 14.1601 18.139 14.1573C18.1397 14.1545 18.1405 14.1517 18.1413 14.149C18.1421 14.1462 18.143 14.1435 18.144 14.1407C18.145 14.138 18.146 14.1353 18.1471 14.1327C18.1482 14.13 18.1494 14.1274 18.1506 14.1248C18.1519 14.1222 18.1532 14.1196 18.1545 14.117C18.1559 14.1145 18.1573 14.112 18.1588 14.1095C18.1603 14.107 18.1618 14.1046 18.1634 14.1022C18.165 14.0998 18.1667 14.0974 18.1684 14.0951C18.1701 14.0928 18.1719 14.0906 18.1737 14.0883C18.1756 14.0861 18.1775 14.0839 18.1794 14.0818C18.1813 14.0796 18.1833 14.0776 18.1854 14.0755L18.87 13.3908C18.8721 13.3888 18.8742 13.3868 18.8763 13.3849C18.8784 13.3829 18.8806 13.3811 18.8828 13.3792C18.8851 13.3774 18.8873 13.3756 18.8897 13.3739C18.892 13.3722 18.8943 13.3705 18.8967 13.3689C18.8991 13.3673 18.9016 13.3658 18.904 13.3643C18.9065 13.3628 18.909 13.3614 18.9116 13.36C18.9141 13.3586 18.9167 13.3574 18.9193 13.3561C18.9219 13.3549 18.9245 13.3537 18.9272 13.3526C18.9299 13.3515 18.9325 13.3505 18.9353 13.3495C18.938 13.3485 18.9407 13.3476 18.9435 13.3468C18.9462 13.3459 18.949 13.3452 18.9518 13.3445C18.9546 13.3438 18.9574 13.3431 18.9602 13.3426C18.9631 13.342 18.9659 13.3415 18.9688 13.3411C18.9716 13.3407 18.9745 13.3403 18.9774 13.34C18.9802 13.3397 18.9831 13.3395 18.986 13.3394C18.9889 13.3392 18.9917 13.3392 18.9946 13.3392C18.9975 13.3392 19.0004 13.3392 19.0033 13.3394C19.0062 13.3395 19.009 13.3397 19.0119 13.34C19.0148 13.3403 19.0176 13.3407 19.0205 13.3411C19.0233 13.3415 19.0262 13.342 19.029 13.3426C19.0318 13.3431 19.0346 13.3438 19.0374 13.3445C19.0402 13.3452 19.043 13.3459 19.0458 13.3468C19.0485 13.3476 19.0513 13.3485 19.054 13.3495C19.0567 13.3505 19.0594 13.3515 19.0621 13.3526C19.0647 13.3537 19.0673 13.3549 19.07 13.3561C19.0726 13.3574 19.0751 13.3586 19.0777 13.36C19.0802 13.3614 19.0827 13.3628 19.0852 13.3643C19.0877 13.3658 19.0901 13.3673 19.0925 13.3689C19.0949 13.3705 19.0973 13.3722 19.0996 13.3739C19.1019 13.3756 19.1042 13.3774 19.1064 13.3792C19.1086 13.3811 19.1108 13.3829 19.1129 13.3849C19.1151 13.3868 19.1172 13.3888 19.1192 13.3908L19.8033 14.0761C19.8054 14.0781 19.8073 14.0802 19.8093 14.0823C19.8112 14.0844 19.8131 14.0866 19.8149 14.0889C19.8167 14.0911 19.8185 14.0933 19.8202 14.0957C19.8219 14.098 19.8236 14.1003 19.8251 14.1027C19.8267 14.1051 19.8283 14.1075 19.8298 14.11C19.8312 14.1125 19.8327 14.115 19.834 14.1175C19.8354 14.1201 19.8366 14.1226 19.8379 14.1252C19.8391 14.1278 19.8403 14.1305 19.8414 14.1331C19.8425 14.1358 19.8435 14.1385 19.8445 14.1412C19.8454 14.1439 19.8463 14.1466 19.8472 14.1494C19.848 14.1521 19.8488 14.1549 19.8495 14.1577C19.8502 14.1605 19.8508 14.1633 19.8513 14.1661C19.8519 14.1689 19.8524 14.1717 19.8528 14.1746C19.8532 14.1774 19.8536 14.1803 19.8539 14.1832C19.8542 14.186 19.8544 14.1889 19.8545 14.1917C19.8547 14.1946 19.8547 14.1975 19.8547 14.2004C19.8547 14.2032 19.8547 14.2061 19.8545 14.209C19.8544 14.2119 19.8542 14.2147 19.8539 14.2176C19.8536 14.2205 19.8532 14.2233 19.8528 14.2262C19.8524 14.229 19.8519 14.2318 19.8513 14.2346C19.8508 14.2375 19.8502 14.2403 19.8495 14.2431C19.8488 14.2459 19.848 14.2486 19.8472 14.2514C19.8463 14.2541 19.8454 14.2569 19.8445 14.2596C19.8435 14.2623 19.8425 14.265 19.8414 14.2676C19.8403 14.2703 19.8391 14.2729 19.8379 14.2755C19.8366 14.2781 19.8354 14.2807 19.834 14.2832C19.8327 14.2858 19.8312 14.2883 19.8298 14.2907C19.8283 14.2932 19.8267 14.2956 19.8251 14.298C19.8236 14.3004 19.8219 14.3028 19.8202 14.3051C19.8185 14.3074 19.8167 14.3097 19.8149 14.3119C19.8131 14.3141 19.8112 14.3163 19.8093 14.3184C19.8073 14.3206 19.8054 14.3227 19.8033 14.3247Z"   fill="#FFCC87" ></path></g><g filter="url(#filter_9ldYKSOV_Zu9dLaYnFu2U)"><path d="M12.7811 6.55144L6.75394 9.57176C6.7491 9.57407 6.74429 9.57648 6.73952 9.57897C6.73474 9.58146 6.73002 9.58402 6.72535 9.58669C6.72068 9.58935 6.71606 9.5921 6.71149 9.59491C6.7069 9.59773 6.70237 9.60065 6.6979 9.60365C6.69343 9.60662 6.68902 9.60969 6.68467 9.61284C6.68031 9.61599 6.676 9.61921 6.67175 9.62254C6.66752 9.62584 6.66334 9.62922 6.65921 9.63267C6.65509 9.63612 6.65104 9.63965 6.64705 9.64326C6.64305 9.64686 6.63913 9.65055 6.63529 9.65428C6.63143 9.65804 6.62764 9.66184 6.62391 9.66573C6.62019 9.66961 6.61654 9.67357 6.61297 9.67759C6.60938 9.6816 6.60588 9.68569 6.60246 9.68982C6.59902 9.69396 6.59567 9.69818 6.5924 9.70244C6.58912 9.70668 6.58592 9.711 6.58281 9.71539C6.57968 9.71979 6.57664 9.7242 6.57369 9.7287C6.57073 9.73319 6.56785 9.73774 6.56506 9.74233C6.56225 9.74693 6.55953 9.75157 6.55691 9.75627C6.55428 9.76097 6.55175 9.76569 6.54929 9.77049C6.54684 9.77526 6.54447 9.78009 6.54218 9.78496C6.53991 9.78984 6.53772 9.79474 6.53561 9.79969C6.53351 9.80464 6.5315 9.80964 6.52959 9.81464C6.52766 9.81967 6.52583 9.82472 6.5241 9.82983C6.52236 9.83491 6.52071 9.84004 6.51915 9.84519C6.51759 9.85034 6.51614 9.8555 6.51479 9.8607C6.51341 9.86591 6.51214 9.87111 6.51098 9.87637C6.50979 9.88163 6.50871 9.88688 6.50773 9.89219C6.50675 9.89747 6.50586 9.90278 6.50506 9.90808C6.50427 9.91341 6.50357 9.91875 6.50298 9.92408C6.50237 9.92944 6.50186 9.93479 6.50146 9.94015C6.50105 9.94551 6.50074 9.95089 6.50054 9.95625C6.50032 9.96161 6.5002 9.96699 6.50019 9.97237C6.50017 9.97775 6.50025 9.98314 6.50044 9.98849C6.50061 9.99388 6.50089 9.99926 6.50128 10.0046C6.50165 10.01 6.50212 10.0153 6.50267 10.0207C6.50325 10.026 6.50392 10.0314 6.50468 10.0367C6.50542 10.042 6.50628 10.0473 6.50724 10.0526C6.50819 10.0579 6.50924 10.0632 6.51039 10.0684C6.51153 10.0737 6.51276 10.0789 6.5141 10.0841C6.51544 10.0893 6.51687 10.0945 6.51839 10.0997C6.51991 10.1048 6.52152 10.11 6.52321 10.1151C6.52492 10.1202 6.52673 10.1252 6.52862 10.1303C6.53052 10.1353 6.5325 10.1403 6.53456 10.1453C6.53663 10.1502 6.53879 10.1552 6.54104 10.16C6.54329 10.1649 6.54563 10.1698 6.54807 10.1746C6.55049 10.1794 6.553 10.1841 6.55559 10.1888C6.55819 10.1935 6.56088 10.1982 6.56364 10.2028C6.56641 10.2074 6.56926 10.212 6.57219 10.2165C6.57512 10.221 6.57814 10.2255 6.58123 10.2299C6.58433 10.2343 6.5875 10.2386 6.59075 10.2429C6.594 10.2472 6.59733 10.2514 6.60073 10.2556C6.60414 10.2597 6.60761 10.2638 6.61117 10.2678C6.61472 10.2719 6.61835 10.2759 6.62204 10.2798C6.62574 10.2837 6.62951 10.2875 6.63333 10.2913C6.63718 10.2951 6.64108 10.2987 6.64504 10.3024C6.64902 10.306 6.65305 10.3096 6.65715 10.313C6.66125 10.3165 6.6654 10.3199 6.66962 10.3233C6.67385 10.3266 6.67813 10.3298 6.68247 10.333C6.68682 10.3362 6.69122 10.3393 6.69567 10.3423C6.70012 10.3453 6.70462 10.3483 6.70918 10.3511C6.71373 10.354 6.71833 10.3568 6.72299 10.3594C6.72766 10.3621 6.73237 10.3647 6.73711 10.3672C6.74186 10.3698 6.74666 10.3722 6.7515 10.3745C6.75634 10.3769 6.76123 10.3791 6.76615 10.3813C6.77108 10.3834 6.77604 10.3855 6.78103 10.3875L12.8076 12.961C12.8152 12.9642 12.8229 12.9672 12.8306 12.97C12.8383 12.9729 12.8461 12.9755 12.854 12.9779C12.8618 12.9804 12.8698 12.9826 12.8777 12.9846C12.8857 12.9867 12.8937 12.9885 12.9018 12.9902C12.9099 12.9918 12.918 12.9932 12.9261 12.9945C12.9342 12.9957 12.9424 12.9967 12.9506 12.9976C12.9588 12.9984 12.967 12.999 12.9752 12.9994C12.9835 12.9998 12.9917 13 12.9999 13C13.0081 13 13.0164 12.9998 13.0246 12.9994C13.0328 12.999 13.041 12.9984 13.0492 12.9976C13.0574 12.9967 13.0656 12.9957 13.0737 12.9945C13.0818 12.9932 13.0899 12.9918 13.098 12.9902C13.1061 12.9885 13.1141 12.9867 13.1221 12.9846C13.1301 12.9826 13.138 12.9804 13.1459 12.9779C13.1537 12.9755 13.1615 12.9729 13.1692 12.97C13.177 12.9672 13.1846 12.9642 13.1922 12.961L19.2193 10.3875C19.2243 10.3855 19.2293 10.3834 19.2342 10.3813C19.2391 10.3791 19.244 10.3769 19.2488 10.3745C19.2537 10.3722 19.2585 10.3698 19.2632 10.3672C19.268 10.3647 19.2727 10.3621 19.2774 10.3594C19.282 10.3568 19.2866 10.354 19.2912 10.3511C19.2957 10.3483 19.3003 10.3453 19.3047 10.3423C19.3091 10.3393 19.3135 10.3362 19.3179 10.333C19.3222 10.3298 19.3265 10.3266 19.3307 10.3233C19.3349 10.3199 19.3391 10.3165 19.3432 10.313C19.3473 10.3096 19.3513 10.306 19.3553 10.3024C19.3593 10.2987 19.3632 10.2951 19.367 10.2913C19.3708 10.2875 19.3746 10.2837 19.3783 10.2798C19.382 10.2759 19.3856 10.2719 19.3892 10.2678C19.3927 10.2638 19.3962 10.2597 19.3996 10.2556C19.403 10.2514 19.4064 10.2472 19.4096 10.2429C19.4129 10.2386 19.416 10.2343 19.4191 10.2299C19.4222 10.2255 19.4252 10.221 19.4282 10.2165C19.4311 10.212 19.4339 10.2074 19.4367 10.2028C19.4395 10.1982 19.4421 10.1935 19.4448 10.1888C19.4473 10.1841 19.4499 10.1794 19.4523 10.1746C19.4547 10.1698 19.457 10.1649 19.4593 10.16C19.4616 10.1552 19.4637 10.1502 19.4658 10.1453C19.4679 10.1403 19.4698 10.1353 19.4717 10.1303C19.4736 10.1252 19.4754 10.1202 19.4771 10.1151C19.4788 10.11 19.4805 10.1048 19.482 10.0997C19.4835 10.0945 19.4849 10.0893 19.4862 10.0841C19.4876 10.0789 19.4888 10.0737 19.49 10.0684C19.4911 10.0632 19.4922 10.0579 19.4931 10.0526C19.4941 10.0473 19.4949 10.042 19.4957 10.0367C19.4965 10.0314 19.4971 10.026 19.4977 10.0207C19.4983 10.0153 19.4987 10.01 19.4991 10.0046C19.4995 9.99926 19.4997 9.99388 19.4999 9.98849C19.5001 9.98314 19.5002 9.97775 19.5002 9.97237C19.5001 9.96701 19.5 9.96163 19.4998 9.95625C19.4996 9.95089 19.4993 9.94551 19.4989 9.94015C19.4985 9.93479 19.498 9.92944 19.4974 9.92408C19.4968 9.91875 19.4961 9.91341 19.4953 9.90808C19.4945 9.90278 19.4936 9.89747 19.4926 9.89219C19.4916 9.88688 19.4906 9.88163 19.4894 9.87637C19.4882 9.87111 19.4869 9.86591 19.4856 9.8607C19.4842 9.8555 19.4827 9.85034 19.4812 9.84519C19.4796 9.84004 19.478 9.83491 19.4763 9.82983C19.4745 9.82472 19.4727 9.81967 19.4708 9.81464C19.4689 9.80964 19.4668 9.80464 19.4647 9.79969C19.4626 9.79474 19.4604 9.78984 19.4582 9.78496C19.4559 9.78009 19.4535 9.77526 19.4511 9.77049C19.4486 9.76569 19.4461 9.76097 19.4434 9.75627C19.4408 9.75157 19.4381 9.74693 19.4353 9.74233C19.4325 9.73774 19.4296 9.73319 19.4267 9.7287C19.4237 9.7242 19.4207 9.71979 19.4176 9.71539C19.4144 9.711 19.4112 9.70668 19.408 9.70244C19.4047 9.69818 19.4013 9.69396 19.3979 9.68982C19.3945 9.68569 19.391 9.6816 19.3874 9.67759C19.3838 9.67357 19.3802 9.66961 19.3765 9.66573C19.3727 9.66184 19.3689 9.65804 19.3651 9.65428C19.3612 9.65055 19.3573 9.64686 19.3533 9.64326C19.3493 9.63965 19.3453 9.63612 19.3411 9.63267C19.337 9.62922 19.3328 9.62584 19.3286 9.62254C19.3244 9.61921 19.32 9.61599 19.3157 9.61284C19.3113 9.60969 19.3069 9.60662 19.3024 9.60362C19.298 9.60065 19.2935 9.59773 19.2889 9.59491C19.2843 9.5921 19.2797 9.58935 19.275 9.58669C19.2703 9.58402 19.2656 9.58146 19.2609 9.57897C19.2561 9.57648 19.2513 9.57407 19.2464 9.57176L13.2187 6.55144C13.2103 6.54723 13.2017 6.54326 13.193 6.53953C13.1843 6.53583 13.1755 6.53236 13.1666 6.52915C13.1577 6.52595 13.1488 6.523 13.1397 6.52031C13.1306 6.51762 13.1215 6.51519 13.1123 6.51303C13.1031 6.51088 13.0939 6.50898 13.0845 6.50734C13.0752 6.50571 13.0659 6.50436 13.0565 6.50328C13.0471 6.50219 13.0377 6.50137 13.0282 6.50081C13.0188 6.50027 13.0093 6.5 12.9999 6.5C12.9905 6.5 12.981 6.50027 12.9716 6.50081C12.9621 6.50137 12.9527 6.50219 12.9433 6.50328C12.9339 6.50436 12.9246 6.50571 12.9153 6.50734C12.906 6.50898 12.8967 6.51088 12.8875 6.51303C12.8783 6.51519 12.8692 6.51762 12.8601 6.52031C12.851 6.523 12.8421 6.52595 12.8332 6.52915C12.8243 6.53236 12.8155 6.53583 12.8068 6.53953C12.7981 6.54326 12.7895 6.54723 12.7811 6.55144Z"   fill="#FF9432" ></path></g><g filter="url(#filter_5XPUp9urg5sKd877efRGo)"><path d="M13.1875 14.2482C13.1802 14.2514 13.1727 14.2544 13.1652 14.2572C13.1577 14.2601 13.1501 14.2627 13.1424 14.2651C13.1348 14.2675 13.127 14.2698 13.1193 14.2718C13.1115 14.2738 13.1037 14.2757 13.0958 14.2773C13.088 14.2789 13.0801 14.2804 13.0721 14.2816C13.0642 14.2828 13.0562 14.2838 13.0482 14.2847C13.0402 14.2855 13.0322 14.2861 13.0242 14.2865C13.0162 14.2869 13.0082 14.2871 13.0001 14.2871C12.9921 14.2871 12.9841 14.2869 12.9761 14.2865C12.968 14.2861 12.96 14.2855 12.952 14.2847C12.944 14.2838 12.9361 14.2828 12.9281 14.2816C12.9202 14.2804 12.9123 14.2789 12.9044 14.2773C12.8966 14.2757 12.8887 14.2738 12.881 14.2718C12.8732 14.2698 12.8655 14.2675 12.8578 14.2651C12.8502 14.2627 12.8426 14.2601 12.8351 14.2572C12.8275 14.2544 12.8201 14.2514 12.8127 14.2482L8.66678 12.4586L8.66678 17.3726C8.66678 18.548 10.3676 19.5002 13.0001 19.5002C15.6326 19.5002 17.3335 18.548 17.3335 17.3726L17.3335 12.4586L13.1875 14.2482Z"   fill="#FFCC87" ></path></g><defs><filter id="filter_lq0REqOKMGegB3qGCUEaz" x="18.05419921875" y="9.454333496093795" width="1.8802490234375" height="5.4013671875" filterUnits="userSpaceOnUse" color-interpolation-filters="sRGB"><feFlood flood-opacity="0" result="feFloodId_lq0REqOKMGegB3qGCUEaz"/><feColorMatrix in="SourceAlpha" type="matrix" values="0 0 0 0 0 0 0 0 0 0 0 0 0 0 0 0 0 0 127 0" result="hardAlpha_lq0REqOKMGegB3qGCUEaz"/><feOffset dx="0" dy="0.2"/><feGaussianBlur stdDeviation="0.25"/><feComposite in2="hardAlpha_lq0REqOKMGegB3qGCUEaz" operator="out"/><feColorMatrix type="matrix" values="0 0 0 0 0 0 0 0 0 0 0 0 0 0 0 0 0 0 0.25 0"/><feBlend mode="normal" in2="feFloodId_lq0REqOKMGegB3qGCUEaz" result="dropShadow_1_lq0REqOKMGegB3qGCUEaz"/><feBlend mode="normal" in="SourceGraphic" in2="dropShadow_1_lq0REqOKMGegB3qGCUEaz" result="shape_lq0REqOKMGegB3qGCUEaz"/></filter><filter id="filter_UZqn2I-LThIFwMh_izB6u" x="17.633697509765625" y="13.039172363281295" width="2.721038818359375" height="2.7215576171875" filterUnits="userSpaceOnUse" color-interpolation-filters="sRGB"><feFlood flood-opacity="0" result="feFloodId_UZqn2I-LThIFwMh_izB6u"/><feColorMatrix in="SourceAlpha" type="matrix" values="0 0 0 0 0 0 0 0 0 0 0 0 0 0 0 0 0 0 127 0" result="hardAlpha_UZqn2I-LThIFwMh_izB6u"/><feOffset dx="0" dy="0.2"/><feGaussianBlur stdDeviation="0.25"/><feComposite in2="hardAlpha_UZqn2I-LThIFwMh_izB6u" operator="out"/><feColorMatrix type="matrix" values="0 0 0 0 0 0 0 0 0 0 0 0 0 0 0 0 0 0 0.25 0"/><feBlend mode="normal" in2="feFloodId_UZqn2I-LThIFwMh_izB6u" result="dropShadow_1_UZqn2I-LThIFwMh_izB6u"/><feBlend mode="normal" in="SourceGraphic" in2="dropShadow_1_UZqn2I-LThIFwMh_izB6u" result="shape_UZqn2I-LThIFwMh_izB6u"/></filter><filter id="filter_9ldYKSOV_Zu9dLaYnFu2U" x="6.00018310546875" y="6.2000000000000455" width="14" height="7.5" filterUnits="userSpaceOnUse" color-interpolation-filters="sRGB"><feFlood flood-opacity="0" result="feFloodId_9ldYKSOV_Zu9dLaYnFu2U"/><feColorMatrix in="SourceAlpha" type="matrix" values="0 0 0 0 0 0 0 0 0 0 0 0 0 0 0 0 0 0 127 0" result="hardAlpha_9ldYKSOV_Zu9dLaYnFu2U"/><feOffset dx="0" dy="0.2"/><feGaussianBlur stdDeviation="0.25"/><feComposite in2="hardAlpha_9ldYKSOV_Zu9dLaYnFu2U" operator="out"/><feColorMatrix type="matrix" values="0 0 0 0 0 0 0 0 0 0 0 0 0 0 0 0 0 0 0.25 0"/><feBlend mode="normal" in2="feFloodId_9ldYKSOV_Zu9dLaYnFu2U" result="dropShadow_1_9ldYKSOV_Zu9dLaYnFu2U"/><feBlend mode="normal" in="SourceGraphic" in2="dropShadow_1_9ldYKSOV_Zu9dLaYnFu2U" result="shape_9ldYKSOV_Zu9dLaYnFu2U"/></filter><filter id="filter_5XPUp9urg5sKd877efRGo" x="8.166778564453125" y="12.158557128906295" width="9.66668701171875" height="8.04168701171875" filterUnits="userSpaceOnUse" color-interpolation-filters="sRGB"><feFlood flood-opacity="0" result="feFloodId_5XPUp9urg5sKd877efRGo"/><feColorMatrix in="SourceAlpha" type="matrix" values="0 0 0 0 0 0 0 0 0 0 0 0 0 0 0 0 0 0 127 0" result="hardAlpha_5XPUp9urg5sKd877efRGo"/><feOffset dx="0" dy="0.2"/><feGaussianBlur stdDeviation="0.25"/><feComposite in2="hardAlpha_5XPUp9urg5sKd877efRGo" operator="out"/><feColorMatrix type="matrix" values="0 0 0 0 0 0 0 0 0 0 0 0 0 0 0 0 0 0 0.25 0"/><feBlend mode="normal" in2="feFloodId_5XPUp9urg5sKd877efRGo" result="dropShadow_1_5XPUp9urg5sKd877efRGo"/><feBlend mode="normal" in="SourceGraphic" in2="dropShadow_1_5XPUp9urg5sKd877efRGo" result="shape_5XPUp9urg5sKd877efRGo"/></filter></defs></svg>